# xmcd
#
# Track frame offsets: 
#        150
#        25445
#        46483
#        67728
#        86571
#        104613
#        131043
#        154213
#        181835
#        207383
#
# Disc length: 3156 seconds
#
# Revision: 0
# Processed by: cddbd v1.5.2PL0 Copyright (c) Steve Scherf et al.
# Submitted via: ExactAudioCopy v1.0b3
#
DISCID=890c520a
DTITLE=Truong Vu, Mong Thi - Ve Que Ngoai
DYEAR=1999
DGENRE=
TTITLE0=Truong Vu - Ngau hung ly qua cau
TTITLE1=Mong Thi - Ve que ngoai
TTITLE2=Truong Vu - Tinh xua vung dai
TTITLE3=Sao em no voi lay chong
TTITLE4=Truong Vu - Rung la thay chua
TTITLE5=Mong Thi - May nhip cau tre
TTITLE6=Duyen tinh
TTITLE7=Truong Vu - Goi nho que huong
TTITLE8=Mong Thi - Quynh huong
TTITLE9=Nhip vong dong dua
EXTD=
EXTT0=
EXTT1=
EXTT2=
EXTT3=
EXTT4=
EXTT5=
EXTT6=
EXTT7=
EXTT8=
EXTT9=
PLAYORDER=
